<svg xmlns="http://www.w3.org/2000/svg" viewBox="0 0 302.4 79" width="302.4" height="79" fill="none">
<g transform="translate(-9 -19)">
  <rect x="11" y="42" width="22" height="8" rx="4" fill="#000000"/>
  <rect x="17" y="58" width="15" height="8" rx="4" fill="#000000" opacity="1"/>
  <path d="M45 44 H109 L100 90 Q99 96 93 96 H61 Q55 96 54 90 Z M60.5 57 h33 a2.5 2.5 0 0 1 0 5 h-33 a2.5 2.5 0 0 1 0 -5 Z M63.5 69 h27 a2.5 2.5 0 0 1 0 5 h-27 a2.5 2.5 0 0 1 0 -5 Z" fill="#000000" fill-rule="evenodd"/>
  <path d="M62 44 L73 24 M92 44 L81 24" stroke="#000000" stroke-width="6" stroke-linecap="round" fill="none"/>
  <g transform="translate(126 84) scale(0.04)"><path d="M219 0V-543H4V-700H631V-543H417V0Z M896 9Q800 9 728.5 -27.5Q657 -64 617.5 -127.5Q578 -191 578 -272Q578 -353 617.0 -416.0Q656 -479 723.5 -515.0Q791 -551 876 -551Q956 -551 1022.0 -518.0Q1088 -485 1127.0 -422.5Q1166 -360 1166 -270Q1166 -260 1165.0 -247.0Q1164 -234 1163 -223H769Q781 -182 815.5 -159.0Q850 -136 902 -136Q942 -136 970.5 -147.5Q999 -159 1027 -183L1127 -79Q1048 9 896 9ZM766 -323H988Q980 -366 950.5 -391.0Q921 -416 877 -416Q833 -416 803.5 -391.0Q774 -366 766 -323Z M1192 0V-112L1443 -401H1199V-542H1682V-431L1431 -142H1692V0Z" fill="#000000"/><path d="M2088 9Q1982 9 1928 -54V0H1747V-742H1937V-495Q1992 -551 2088 -551Q2162 -551 2222.0 -517.0Q2282 -483 2318.0 -420.5Q2354 -358 2354 -272Q2354 -185 2318.0 -122.5Q2282 -60 2222.0 -25.5Q2162 9 2088 9ZM2048 -142Q2096 -142 2129.0 -176.0Q2162 -210 2162 -272Q2162 -333 2129.0 -366.5Q2096 -400 2048 -400Q2000 -400 1967.0 -366.5Q1934 -333 1934 -272Q1934 -210 1967.0 -176.0Q2000 -142 2048 -142Z M2685 9Q2596 9 2527.0 -27.0Q2458 -63 2418.5 -126.5Q2379 -190 2379 -272Q2379 -353 2418.5 -416.5Q2458 -480 2527.0 -515.5Q2596 -551 2685 -551Q2774 -551 2843.5 -515.5Q2913 -480 2952.0 -416.5Q2991 -353 2991 -272Q2991 -190 2952.0 -126.5Q2913 -63 2843.5 -27.0Q2774 9 2685 9ZM2685 -142Q2734 -142 2766.5 -176.0Q2799 -210 2799 -272Q2799 -333 2766.5 -366.5Q2734 -400 2685 -400Q2637 -400 2604.0 -366.5Q2571 -333 2571 -272Q2571 -210 2604.0 -176.0Q2637 -142 2685 -142Z M3016 0V-112L3267 -401H3023V-542H3506V-431L3255 -142H3516V0Z M3837 9Q3748 9 3679.0 -27.0Q3610 -63 3570.5 -126.5Q3531 -190 3531 -272Q3531 -353 3570.5 -416.5Q3610 -480 3679.0 -515.5Q3748 -551 3837 -551Q3926 -551 3995.5 -515.5Q4065 -480 4104.0 -416.5Q4143 -353 4143 -272Q4143 -190 4104.0 -126.5Q4065 -63 3995.5 -27.0Q3926 9 3837 9ZM3837 -142Q3886 -142 3918.5 -176.0Q3951 -210 3951 -272Q3951 -333 3918.5 -366.5Q3886 -400 3837 -400Q3789 -400 3756.0 -366.5Q3723 -333 3723 -272Q3723 -210 3756.0 -176.0Q3789 -142 3837 -142Z M4202 0V-542H4383V-477Q4442 -551 4565 -551V-380Q4541 -383 4522 -383Q4464 -383 4428.0 -351.5Q4392 -320 4392 -249V0Z" fill="#000000"/></g>
</g>
</svg>